<svg xmlns="http://www.w3.org/2000/svg" viewBox="0 0 1242 2208"><defs><style>.cls-1{fill:#bad3de;}.cls-1,.cls-3{stroke:#4b5a5e;}.cls-1,.cls-11,.cls-3{stroke-miterlimit:10;}.cls-1,.cls-2,.cls-3{stroke-width:3px;}.cls-2{fill:#e4edef;stroke:#e4edef;stroke-linejoin:round;}.cls-11,.cls-2{stroke-linecap:round;}.cls-3{fill:#7e969e;}.cls-4{fill:#bd8252;}.cls-5{fill:#b78662;}.cls-6{fill:#a0846d;}.cls-7{fill:#805b3d;}.cls-8{fill:#686b6b;}.cls-9{fill:#898e8d;}.cls-10{fill:#b2b4c3;}.cls-11{fill:none;stroke:#898e8d;stroke-width:30px;}</style></defs><g id="רקע_מקלחת" data-name="רקע מקלחת"><rect class="cls-1" x="947.67" y="0.5" width="292.83" height="269" rx="4.88"/><path class="cls-2" d="M953.11,265.77V8.67a3.32,3.32,0,0,1,3.45-3.17h277.86L966.88,15.7A1.88,1.88,0,0,0,965,17.42Z"/><rect class="cls-1" x="654.83" y="1.5" width="292.83" height="269" rx="4.88"/><path class="cls-2" d="M660.28,266.77V9.67a3.32,3.32,0,0,1,3.45-3.17H941.59L674.05,16.7a1.89,1.89,0,0,0-1.88,1.72Z"/><rect class="cls-1" x="362" y="1.5" width="292.83" height="269" rx="4.88"/><path class="cls-2" d="M367.44,266.77V9.67a3.32,3.32,0,0,1,3.45-3.17H648.75L381.22,16.7a1.88,1.88,0,0,0-1.88,1.72Z"/><rect class="cls-1" x="947.67" y="270.5" width="292.83" height="269" rx="4.88"/><path class="cls-2" d="M953.11,535.77V278.67a3.32,3.32,0,0,1,3.45-3.17h277.86L966.88,285.7a1.88,1.88,0,0,0-1.87,1.72Z"/><rect class="cls-1" x="654.83" y="271.5" width="292.83" height="269" rx="4.88"/><path class="cls-2" d="M660.28,536.77V279.67a3.32,3.32,0,0,1,3.45-3.17H941.59L674.05,286.7a1.89,1.89,0,0,0-1.88,1.72Z"/><rect class="cls-1" x="362" y="271.5" width="292.83" height="269" rx="4.88"/><path class="cls-2" d="M367.44,536.77V279.67a3.32,3.32,0,0,1,3.45-3.17H648.75L381.22,286.7a1.88,1.88,0,0,0-1.88,1.72Z"/><rect class="cls-1" x="947.67" y="535.5" width="292.83" height="269" rx="4.88"/><path class="cls-2" d="M953.11,800.77V543.67a3.32,3.32,0,0,1,3.45-3.17h277.86L966.88,550.7a1.88,1.88,0,0,0-1.87,1.72Z"/><rect class="cls-1" x="654.83" y="536.5" width="292.83" height="269" rx="4.88"/><path class="cls-2" d="M660.28,801.77V544.67a3.32,3.32,0,0,1,3.45-3.17H941.59L674.05,551.7a1.89,1.89,0,0,0-1.88,1.72Z"/><rect class="cls-1" x="362" y="536.5" width="292.83" height="269" rx="4.88"/><path class="cls-2" d="M367.44,801.77V544.67a3.32,3.32,0,0,1,3.45-3.17H648.75L381.22,551.7a1.88,1.88,0,0,0-1.88,1.72Z"/><rect class="cls-1" x="947.67" y="804.5" width="292.83" height="269" rx="4.88"/><path class="cls-2" d="M953.11,1069.77V812.67a3.32,3.32,0,0,1,3.45-3.17h277.86L966.88,819.7a1.88,1.88,0,0,0-1.87,1.72Z"/><rect class="cls-1" x="654.83" y="805.5" width="292.83" height="269" rx="4.88"/><path class="cls-2" d="M660.28,1070.77V813.67a3.32,3.32,0,0,1,3.45-3.17H941.59L674.05,820.7a1.89,1.89,0,0,0-1.88,1.72Z"/><rect class="cls-1" x="362" y="805.5" width="292.83" height="269" rx="4.88"/><path class="cls-2" d="M367.44,1070.77V813.67a3.32,3.32,0,0,1,3.45-3.17H648.75L381.22,820.7a1.88,1.88,0,0,0-1.88,1.72Z"/><rect class="cls-1" x="947.67" y="1074.5" width="292.83" height="269" rx="4.88"/><path class="cls-2" d="M953.11,1339.77v-257.1a3.32,3.32,0,0,1,3.45-3.17h277.86l-267.54,10.2a1.88,1.88,0,0,0-1.87,1.72Z"/><rect class="cls-1" x="654.83" y="1075.5" width="292.83" height="269" rx="4.88"/><path class="cls-2" d="M660.28,1340.77v-257.1a3.32,3.32,0,0,1,3.45-3.17H941.59l-267.54,10.2a1.89,1.89,0,0,0-1.88,1.72Z"/><rect class="cls-1" x="362" y="1075.5" width="292.83" height="269" rx="4.88"/><path class="cls-2" d="M367.44,1340.77v-257.1a3.32,3.32,0,0,1,3.45-3.17H648.75l-267.53,10.2a1.88,1.88,0,0,0-1.88,1.72Z"/><rect class="cls-1" x="947.67" y="1339.5" width="292.83" height="269" rx="4.88"/><path class="cls-2" d="M953.11,1604.77v-257.1a3.32,3.32,0,0,1,3.45-3.17h277.86l-267.54,10.2a1.88,1.88,0,0,0-1.87,1.72Z"/><rect class="cls-1" x="654.83" y="1340.5" width="292.83" height="269" rx="4.88"/><path class="cls-2" d="M660.28,1605.77v-257.1a3.32,3.32,0,0,1,3.45-3.17H941.59l-267.54,10.2a1.89,1.89,0,0,0-1.88,1.72Z"/><rect class="cls-1" x="362" y="1340.5" width="292.83" height="269" rx="4.88"/><path class="cls-2" d="M367.44,1605.77v-257.1a3.32,3.32,0,0,1,3.45-3.17H648.75l-267.53,10.2a1.88,1.88,0,0,0-1.88,1.72Z"/><rect class="cls-1" x="947.67" y="1604.5" width="292.83" height="269" rx="4.88"/><path class="cls-2" d="M953.11,1869.77v-257.1a3.32,3.32,0,0,1,3.45-3.17h277.86l-267.54,10.2a1.88,1.88,0,0,0-1.87,1.72Z"/><rect class="cls-1" x="654.83" y="1605.5" width="292.83" height="269" rx="4.88"/><path class="cls-2" d="M660.28,1870.77v-257.1a3.32,3.32,0,0,1,3.45-3.17H941.59l-267.54,10.2a1.89,1.89,0,0,0-1.88,1.72Z"/><rect class="cls-1" x="362" y="1605.5" width="292.83" height="269" rx="4.88"/><path class="cls-2" d="M367.44,1870.77v-257.1a3.32,3.32,0,0,1,3.45-3.17H648.75l-267.53,10.2a1.88,1.88,0,0,0-1.88,1.72Z"/><path class="cls-1" d="M359.21,271.87,199,293c-1.79.24-3.25-1.93-3.25-4.85V7.78c0-2.92,1.46-5.28,3.25-5.28h160.2c1.54,0,2.79,2.19,2.79,4.88V266.62C362,269.31,360.75,271.66,359.21,271.87Z"/><path class="cls-2" d="M199.09,289V11.32c0-1.89.95-3.42,2.11-3.43l157.6-.38L207.49,18.85c-.62,0-1.11.85-1.14,1.86Z"/><path class="cls-1" d="M192.49,293.86,3.86,318.74C1.73,319,0,316.68,0,313.5V8.25C0,5.07,1.73,2.5,3.86,2.5H192.49c1.8,0,3.27,2.36,3.27,5.28V288.15C195.76,291.07,194.29,293.62,192.49,293.86Z"/><path class="cls-2" d="M4,314.34V12.1c0-2,1.12-3.72,2.5-3.73L192,7.92,13.9,20.29c-.73.05-1.31.93-1.35,2Z"/><path class="cls-1" d="M359.21,542.24,199,584.58c-1.79.48-3.25-1.5-3.25-4.42V299.79c0-2.91,1.46-5.47,3.25-5.71l160.2-21.21c1.54-.2,2.79,1.82,2.79,4.51V536.62C362,539.31,360.75,541.83,359.21,542.24Z"/><path class="cls-2" d="M199.09,580.53V302.89c0-1.89.95-3.55,2.11-3.71l157.6-21.25L207.49,309.31c-.62.12-1.11,1-1.14,2Z"/><path class="cls-1" d="M192.49,586.31,3.86,636.16c-2.13.57-3.86-1.55-3.86-4.73V326.18c0-3.17,1.73-6,3.86-6.26l188.63-25c1.8-.23,3.27,1.94,3.27,4.85V580.16C195.76,583.08,194.29,585.83,192.49,586.31Z"/><path class="cls-2" d="M4,631.75V329.51c0-2.06,1.12-3.88,2.5-4.06l185.56-25-178.12,36a2.24,2.24,0,0,0-1.35,2.21Z"/><path class="cls-1" d="M359.21,807.6,199,870.76c-1.79.71-3.25-1.08-3.25-4V586.4c0-2.92,1.46-5.67,3.25-6.14l160.2-42c1.54-.4,2.79,1.46,2.79,4.15V801.62C362,804.31,360.75,807,359.21,807.6Z"/><path class="cls-2" d="M199.09,866.7V589.06c0-1.89.95-3.67,2.11-4l157.6-41.73-151.31,51a2.33,2.33,0,0,0-1.14,2.16Z"/><path class="cls-1" d="M192.49,873.33,3.86,947.71c-2.13.84-3.86-1.06-3.86-4.23V638.22c0-3.17,1.73-6.2,3.86-6.76L192.49,582c1.8-.47,3.27,1.51,3.27,4.43V866.77C195.76,869.68,194.29,872.62,192.49,873.33Z"/><path class="cls-2" d="M4,943.28V641c0-2.06,1.12-4,2.5-4.39L192,587.51,13.9,646.62A2.59,2.59,0,0,0,12.55,649Z"/><path class="cls-1" d="M359.21,1077,199,1161.26c-1.79,1-3.25-.65-3.25-3.56V877.33c0-2.92,1.46-5.86,3.25-6.57l160.2-63.16c1.54-.61,2.79,1.09,2.79,3.78v259.24C362,1073.31,360.75,1076.16,359.21,1077Z"/><path class="cls-2" d="M199.09,1157.19V879.55c0-1.89.95-3.8,2.11-4.26l157.6-62.52-151.31,71a2.73,2.73,0,0,0-1.14,2.31Z"/><path class="cls-1" d="M192.49,1164.7,3.86,1264c-2.13,1.12-3.86-.54-3.86-3.72V955c0-3.18,1.73-6.43,3.86-7.27l188.63-74.38c1.8-.71,3.27,1.08,3.27,4V1157.7C195.76,1160.61,194.29,1163.75,192.49,1164.7Z"/><path class="cls-2" d="M4,1259.51V957.27c0-2,1.12-4.17,2.5-4.72L192,878.94,13.9,961.54a3,3,0,0,0-1.35,2.56Z"/><path class="cls-1" d="M359.21,1347.34,199,1452.84c-1.79,1.19-3.25-.22-3.25-3.13V1169.34c0-2.92,1.46-6,3.25-7L359.21,1078c1.54-.81,2.79.72,2.79,3.41v259.24C362,1343.31,360.75,1346.32,359.21,1347.34Z"/><path class="cls-2" d="M199.09,1448.76V1171.12c0-1.89.95-3.92,2.11-4.54l157.6-83.39-151.31,91a3.16,3.16,0,0,0-1.14,2.46Z"/><path class="cls-1" d="M192.49,1457.14,3.86,1581.37c-2.13,1.4-3.86,0-3.86-3.21V1272.91c0-3.18,1.73-6.66,3.86-7.79l188.63-99.34c1.8-1,3.27.64,3.27,3.56v280.37C195.76,1452.62,194.29,1456,192.49,1457.14Z"/><path class="cls-2" d="M4,1576.92V1274.68c0-2.06,1.12-4.32,2.5-5L192,1171.44,13.9,1277.63a3.52,3.52,0,0,0-1.35,2.73Z"/><path class="cls-1" d="M359.21,1612.7,199,1739c-1.79,1.42-3.25.21-3.25-2.71V1455.94c0-2.91,1.46-6.24,3.25-7.42l160.2-105.19c1.54-1,2.79.36,2.79,3.05v259.24C362,1608.31,360.75,1611.49,359.21,1612.7Z"/><path class="cls-2" d="M199.09,1734.93V1457.29a6.33,6.33,0,0,1,2.11-4.81l157.6-103.87-151.31,110.7a3.62,3.62,0,0,0-1.14,2.6Z"/><path class="cls-1" d="M192.49,1744.17,3.86,1892.91c-2.13,1.68-3.86.47-3.86-2.7V1585c0-3.17,1.73-6.88,3.86-8.28l188.63-123.86c1.8-1.19,3.27.22,3.27,3.13v280.37C195.76,1739.23,194.29,1742.75,192.49,1744.17Z"/><path class="cls-2" d="M4,1888.45V1586.21a7,7,0,0,1,2.5-5.37L192,1458.53,13.9,1587.86a4.12,4.12,0,0,0-1.35,2.92Z"/><path class="cls-1" d="M359.21,1878.07,199,2025.2c-1.79,1.66-3.25.63-3.25-2.28V1742.55c0-2.92,1.46-6.43,3.25-7.85l160.2-126c1.54-1.22,2.79,0,2.79,2.68v259.24C362,1873.31,360.75,1876.65,359.21,1878.07Z"/><path class="cls-2" d="M199.09,2021.1V1743.46a7.22,7.22,0,0,1,2.11-5.08L358.8,1614,207.49,1744.38a4.18,4.18,0,0,0-1.14,2.76Z"/><path class="cls-1" d="M192.49,2031.2,3.86,2204.45c-2.13,2-3.86,1-3.86-2.2V1897c0-3.18,1.73-7.12,3.86-8.79l188.63-148.37c1.8-1.42,3.27-.21,3.27,2.71v280.37C195.76,2025.83,194.29,2029.54,192.49,2031.2Z"/><path class="cls-2" d="M4,2200V1897.74a8.11,8.11,0,0,1,2.5-5.7L192,1745.62,13.9,1898.1a4.72,4.72,0,0,0-1.35,3.09Z"/><polygon class="cls-3" points="-0.5 2210.5 362 1870.62 1240.5 1868.62 1242 2208 -0.5 2210.5"/></g><g id="דוש"><rect class="cls-4" x="56" y="2052" width="1130" height="67" rx="21.59"/><path class="cls-5" d="M1176,2055.39v23a21.58,21.58,0,0,1-21.59,21.59H67.59A21.53,21.53,0,0,1,56,2096.61v.8A21.58,21.58,0,0,0,77.59,2119H1164.41a21.58,21.58,0,0,0,21.59-21.59v-23.83A21.55,21.55,0,0,0,1176,2055.39Z"/><path class="cls-6" d="M1064.45,2120H177.55l-21.42,179h38.75l29.59-107.26a38,38,0,0,1,36.44-27.91L621,2161.68l360.09,2.15a38,38,0,0,1,36.44,27.91L1047.12,2299h38.75Z"/><path class="cls-7" d="M234.91,2163.83a38,38,0,0,0-36.44,27.91L168.88,2299h26l29.59-107.26a38,38,0,0,1,36.44-27.91"/><polygon class="cls-7" points="1086 2299 1064.72 2298.91 1049 2120 1064 2120 1086 2299"/><polygon class="cls-7" points="632.5 2289 611.5 2289 600.5 2162 641.5 2162 632.5 2289"/><ellipse class="cls-8" cx="258" cy="381.5" rx="29" ry="38.5"/><rect class="cls-8" x="434.36" y="575.89" width="381.28" height="22.72" rx="11.36"/><path class="cls-9" d="M446.57,598.3c22.72,13.21,94,26.4,178.5,26.4s156-13.19,178.86-26.4Z"/><ellipse class="cls-8" cx="500.79" cy="606.89" rx="7.37" ry="2.46"/><ellipse class="cls-8" cx="523.51" cy="606.89" rx="7.37" ry="2.46"/><ellipse class="cls-8" cx="556.05" cy="606.89" rx="7.37" ry="2.46"/><ellipse class="cls-8" cx="568.33" cy="617.33" rx="7.37" ry="2.46"/><ellipse class="cls-8" cx="583.07" cy="609.35" rx="7.37" ry="2.46"/><ellipse class="cls-8" cx="605.17" cy="617.33" rx="7.37" ry="2.46"/><ellipse class="cls-8" cx="622.36" cy="609.35" rx="7.37" ry="2.46"/><ellipse class="cls-8" cx="638.32" cy="616.72" rx="7.37" ry="2.46"/><ellipse class="cls-8" cx="656.13" cy="609.35" rx="7.37" ry="2.46"/><ellipse class="cls-8" cx="673.94" cy="614.87" rx="7.37" ry="2.46"/><ellipse class="cls-8" cx="686.83" cy="606.89" rx="7.37" ry="2.46"/><ellipse class="cls-8" cx="699.72" cy="612.42" rx="7.37" ry="2.46"/><ellipse class="cls-8" cx="734.72" cy="609.96" rx="7.37" ry="2.46"/><ellipse class="cls-8" cx="754.98" cy="604.44" rx="7.37" ry="2.46"/><ellipse class="cls-8" cx="715.69" cy="604.44" rx="7.37" ry="2.46"/><ellipse class="cls-8" cx="540.09" cy="614.26" rx="7.37" ry="2.46"/><path class="cls-10" d="M626.42,454.08l58.49,11.86A105.41,105.41,0,0,1,742.56,499l65.78,73.54a2.08,2.08,0,0,1-1.56,3.47H447.22a2.08,2.08,0,0,1-1.56-3.47L511.6,498.8a105.45,105.45,0,0,1,57.22-33l56.76-11.75A2.16,2.16,0,0,1,626.42,454.08Z"/><path class="cls-11" d="M625.43,427.75,623.51,329a21.28,21.28,0,0,0-25.86-20.36L262.89,382.36"/><path class="cls-8" d="M608.81,423.21a19.19,19.19,0,0,1,33.24,0l3.16,9.11a55.94,55.94,0,0,0,8.37,15.55l11,14.38H586.27l9.4-13.84a106.39,106.39,0,0,0,9-16.07Z"/></g></svg>