<svg xmlns="http://www.w3.org/2000/svg" viewBox="0 0 389.13 206.96"><defs><style>.cls-1{fill:#7da9bc;}.cls-2{fill:#c7d8dd;}.cls-3{fill:#cad8dd;}.cls-4{fill:#83a9b2;}</style></defs><g id="דוש"><circle class="cls-1" cx="308.2" cy="81.75" r="25.61"/><path class="cls-2" d="M294.6,97.05c-3.11.14-8.43-10.71-4.87-18.76,1.56-3.52,5.1-7.16,7.1-6.54,1.6.5,1.89,3.65,1.94,4.19.32,3.51-1.73,4.49-1.67,8.09,0,2.72,1.23,2.8,1.27,5.39C298.43,92.8,296.49,97,294.6,97.05Z"/><ellipse class="cls-2" cx="302.27" cy="65.82" rx="4.4" ry="3.87"/><circle class="cls-1" cx="126.2" cy="77.75" r="29.61"/><path class="cls-2" d="M110.48,95.43c-3.59.17-9.75-12.37-5.63-21.68,1.8-4.07,5.9-8.27,8.2-7.56,1.85.58,2.18,4.22,2.24,4.85.38,4.06-2,5.18-1.92,9.35.06,3.14,1.41,3.23,1.46,6.22C114.9,90.53,112.66,95.33,110.48,95.43Z"/><ellipse class="cls-2" cx="119.35" cy="59.34" rx="5.09" ry="4.48"/><circle class="cls-1" cx="86.2" cy="92.75" r="29.61"/><path class="cls-2" d="M70.48,110.43c-3.59.17-9.75-12.37-5.63-21.68,1.8-4.07,5.9-8.27,8.2-7.56,1.85.58,2.18,4.22,2.24,4.85.38,4.06-2,5.18-1.92,9.35.06,3.14,1.41,3.23,1.46,6.22C74.9,105.53,72.66,110.33,70.48,110.43Z"/><ellipse class="cls-2" cx="79.35" cy="74.34" rx="5.09" ry="4.48"/><circle class="cls-1" cx="257.2" cy="158.75" r="29.61"/><path class="cls-2" d="M241.48,176.43c-3.59.17-9.75-12.37-5.63-21.68,1.8-4.07,5.9-8.27,8.2-7.56,1.85.58,2.18,4.22,2.24,4.85.38,4.06-2,5.18-1.92,9.35.06,3.14,1.41,3.23,1.46,6.22C245.9,171.53,243.66,176.33,241.48,176.43Z"/><ellipse class="cls-2" cx="250.35" cy="140.34" rx="5.09" ry="4.48"/><circle class="cls-1" cx="355.2" cy="116.75" r="29.61"/><path class="cls-2" d="M339.48,134.43c-3.59.17-9.75-12.37-5.63-21.68,1.8-4.07,5.9-8.27,8.2-7.56,1.85.58,2.18,4.22,2.24,4.85.38,4.06-2,5.18-1.92,9.35.06,3.14,1.41,3.23,1.46,6.22C343.9,129.53,341.66,134.33,339.48,134.43Z"/><ellipse class="cls-2" cx="348.35" cy="98.34" rx="5.09" ry="4.48"/><circle class="cls-1" cx="179.98" cy="143.75" r="43.39"/><path class="cls-2" d="M156.94,169.66c-5.27.24-14.29-18.13-8.25-31.77,2.64-6,8.64-12.12,12-11.07,2.7.84,3.2,6.17,3.28,7.09.55,6-2.93,7.6-2.81,13.71.08,4.59,2.07,4.73,2.14,9.12C163.41,162.47,160.13,169.51,156.94,169.66Z"/><ellipse class="cls-2" cx="169.94" cy="116.77" rx="7.46" ry="6.56"/><circle class="cls-1" cx="308.48" cy="126.25" r="46.89"/><path class="cls-2" d="M283.58,154.25c-5.69.26-15.44-19.59-8.91-34.33,2.85-6.44,9.34-13.1,13-12,2.93.91,3.46,6.67,3.55,7.67.59,6.43-3.16,8.21-3,14.81.09,5,2.24,5.12,2.32,9.85C290.58,146.48,287,154.09,283.58,154.25Z"/><ellipse class="cls-2" cx="297.63" cy="97.09" rx="8.06" ry="7.09"/><circle class="cls-1" cx="228.48" cy="104.25" r="39.89"/><path class="cls-2" d="M207.3,128.07c-4.84.22-13.14-16.67-7.59-29.21,2.43-5.48,7.95-11.14,11-10.18,2.49.78,2.94,5.68,3,6.53.51,5.46-2.69,7-2.59,12.59.08,4.23,1.91,4.36,2,8.39C213.25,121.46,210.23,127.94,207.3,128.07Z"/><ellipse class="cls-2" cx="219.25" cy="79.45" rx="6.86" ry="6.03"/><circle class="cls-1" cx="98.48" cy="136.25" r="39.89"/><path class="cls-2" d="M77.3,160.07c-4.84.22-13.14-16.67-7.59-29.21,2.43-5.48,8-11.14,11.05-10.18,2.49.78,2.94,5.68,3,6.53.51,5.46-2.69,7-2.59,12.59.08,4.23,1.91,4.36,2,8.39C83.25,153.46,80.23,159.94,77.3,160.07Z"/><ellipse class="cls-2" cx="89.25" cy="111.45" rx="6.86" ry="6.03"/><circle class="cls-3" cx="173.2" cy="78.75" r="29.61"/><path class="cls-4" d="M157.48,96.43c-3.59.17-9.75-12.37-5.63-21.68,1.8-4.07,5.9-8.27,8.2-7.56,1.85.58,2.18,4.22,2.24,4.85.38,4.06-2,5.18-1.92,9.35.06,3.14,1.41,3.23,1.46,6.22C161.9,91.53,159.66,96.33,157.48,96.43Z"/><ellipse class="cls-4" cx="166.35" cy="60.34" rx="5.09" ry="4.48"/><circle class="cls-3" cx="226.09" cy="152.64" r="16.5"/><path class="cls-4" d="M217.33,162.49c-2,.09-5.43-6.89-3.14-12.08,1-2.27,3.29-4.61,4.57-4.21,1,.32,1.22,2.35,1.25,2.7.21,2.26-1.11,2.89-1.07,5.21,0,1.75.79,1.8.82,3.47C219.79,159.76,218.54,162.44,217.33,162.49Z"/><ellipse class="cls-4" cx="222.27" cy="142.38" rx="2.84" ry="2.5"/><circle class="cls-3" cx="250.36" cy="73.91" r="8.77"/><path class="cls-4" d="M245.71,79.15c-1.07,0-2.89-3.67-1.67-6.42.53-1.21,1.74-2.46,2.43-2.24.54.17.64,1.24.66,1.43.11,1.2-.59,1.54-.57,2.77,0,.93.42,1,.43,1.85C247,77.69,246.35,79.12,245.71,79.15Z"/><ellipse class="cls-4" cx="248.33" cy="68.46" rx="1.51" ry="1.33"/><circle class="cls-3" cx="286.36" cy="39.91" r="8.77"/><path class="cls-4" d="M281.71,45.15c-1.07.05-2.89-3.67-1.67-6.42.53-1.21,1.74-2.46,2.43-2.24.54.17.64,1.24.66,1.43.11,1.2-.59,1.54-.57,2.77,0,.93.42,1,.43,1.85C283,43.69,282.35,45.12,281.71,45.15Z"/><ellipse class="cls-4" cx="284.33" cy="34.46" rx="1.51" ry="1.33"/><circle class="cls-3" cx="210.09" cy="43.64" r="16.5"/><path class="cls-4" d="M201.33,53.49c-2,.09-5.43-6.89-3.14-12.08,1-2.27,3.29-4.61,4.57-4.21,1,.32,1.22,2.35,1.25,2.7.21,2.26-1.11,2.89-1.07,5.21,0,1.75.79,1.8.82,3.47C203.79,50.76,202.54,53.44,201.33,53.49Z"/><ellipse class="cls-4" cx="206.27" cy="33.38" rx="2.84" ry="2.5"/><circle class="cls-3" cx="60.2" cy="123.75" r="29.61"/><path class="cls-4" d="M44.48,141.43c-3.59.17-9.75-12.37-5.63-21.68,1.8-4.07,5.9-8.27,8.2-7.56,1.85.58,2.18,4.22,2.24,4.85.38,4.06-2,5.18-1.92,9.35.06,3.14,1.41,3.23,1.46,6.22C48.9,136.53,46.66,141.33,44.48,141.43Z"/><ellipse class="cls-4" cx="53.35" cy="105.34" rx="5.09" ry="4.48"/><circle class="cls-3" cx="272.2" cy="93.75" r="29.61"/><path class="cls-4" d="M256.48,111.43c-3.59.17-9.75-12.37-5.63-21.68,1.8-4.07,5.9-8.27,8.2-7.56,1.85.58,2.18,4.22,2.24,4.85.38,4.06-2,5.18-1.92,9.35.06,3.14,1.41,3.23,1.46,6.22C260.9,106.53,258.66,111.33,256.48,111.43Z"/><ellipse class="cls-4" cx="265.35" cy="75.34" rx="5.09" ry="4.48"/><circle class="cls-1" cx="116.48" cy="118.25" r="40.89"/><path class="cls-2" d="M94.77,142.67c-5,.23-13.47-17.09-7.78-29.94,2.49-5.62,8.15-11.43,11.33-10.44,2.55.79,3,5.82,3.09,6.69.52,5.61-2.76,7.16-2.65,12.91.08,4.34,1.95,4.47,2,8.6C100.87,135.89,97.77,142.53,94.77,142.67Z"/><ellipse class="cls-2" cx="107.02" cy="92.82" rx="7.03" ry="6.18"/><ellipse class="cls-2" cx="265.84" cy="45.48" rx="5.09" ry="4.48"/><ellipse class="cls-2" cx="17.84" cy="154.48" rx="5.09" ry="4.48"/><ellipse class="cls-2" cx="129.84" cy="187.48" rx="5.09" ry="4.48"/><ellipse class="cls-2" cx="286.84" cy="187.48" rx="5.09" ry="4.48"/><ellipse class="cls-2" cx="74.84" cy="202.48" rx="5.09" ry="4.48"/><ellipse class="cls-2" cx="239.84" cy="4.48" rx="5.09" ry="4.48"/><ellipse class="cls-4" cx="218.84" cy="183.48" rx="2.84" ry="2.5"/><ellipse class="cls-4" cx="80.84" cy="179.48" rx="2.84" ry="2.5"/><ellipse class="cls-4" cx="2.84" cy="170.48" rx="2.84" ry="2.5"/><ellipse class="cls-4" cx="357.84" cy="160.48" rx="2.84" ry="2.5"/><ellipse class="cls-4" cx="277.84" cy="57.48" rx="2.84" ry="2.5"/><ellipse class="cls-4" cx="270.84" cy="24.48" rx="2.84" ry="2.5"/><circle class="cls-3" cx="380.36" cy="65.91" r="8.77"/><path class="cls-4" d="M375.71,71.15c-1.07,0-2.89-3.67-1.67-6.42.53-1.21,1.74-2.46,2.43-2.24.54.17.64,1.24.66,1.43.11,1.2-.59,1.54-.57,2.77,0,.93.42,1,.43,1.85C377,69.69,376.35,71.12,375.71,71.15Z"/><ellipse class="cls-4" cx="378.33" cy="60.46" rx="1.51" ry="1.33"/><ellipse class="cls-2" cx="359.84" cy="71.48" rx="5.09" ry="4.48"/><ellipse class="cls-2" cx="333.84" cy="30.48" rx="5.09" ry="4.48"/><ellipse class="cls-4" cx="371.84" cy="83.48" rx="2.84" ry="2.5"/><ellipse class="cls-4" cx="364.84" cy="50.48" rx="2.84" ry="2.5"/><circle class="cls-3" cx="27.36" cy="108.91" r="8.77"/><path class="cls-4" d="M22.71,114.15c-1.07,0-2.89-3.67-1.67-6.42.53-1.21,1.74-2.46,2.43-2.24s.64,1.24.66,1.43c.11,1.2-.59,1.54-.57,2.77,0,.93.42,1,.43,1.85C24,112.69,23.35,114.12,22.71,114.15Z"/><ellipse class="cls-4" cx="25.33" cy="103.46" rx="1.51" ry="1.33"/><ellipse class="cls-2" cx="6.84" cy="114.48" rx="5.09" ry="4.48"/><ellipse class="cls-2" cx="35.84" cy="69.48" rx="5.09" ry="4.48"/><ellipse class="cls-4" cx="18.84" cy="126.48" rx="2.84" ry="2.5"/><ellipse class="cls-4" cx="11.84" cy="93.48" rx="2.84" ry="2.5"/><ellipse class="cls-4" cx="143.84" cy="30.48" rx="2.84" ry="2.5"/><ellipse class="cls-4" cx="146.84" cy="200.48" rx="2.84" ry="2.5"/></g></svg>