<svg xmlns="http://www.w3.org/2000/svg" viewBox="0 0 647.18 277.97"><defs><style>.cls-1{fill:#7da9bc;}.cls-2{fill:#c7d8dd;}.cls-3{fill:#cad8dd;}.cls-4{fill:#83a9b2;}</style></defs><g id="דוש"><circle class="cls-1" cx="93.46" cy="122.75" r="25.61"/><path class="cls-2" d="M79.86,138.05c-3.11.14-8.44-10.71-4.87-18.76,1.55-3.52,5.1-7.16,7.09-6.54,1.6.5,1.89,3.65,1.94,4.19.32,3.51-1.73,4.49-1.66,8.09,0,2.72,1.22,2.8,1.26,5.39C83.68,133.8,81.74,138,79.86,138.05Z"/><ellipse class="cls-2" cx="87.53" cy="106.82" rx="4.4" ry="3.87"/><circle class="cls-1" cx="68.46" cy="126.75" r="29.61"/><path class="cls-2" d="M52.73,144.43c-3.59.17-9.75-12.37-5.63-21.68,1.8-4.07,5.9-8.27,8.2-7.56,1.85.58,2.19,4.22,2.25,4.85.37,4.06-2,5.18-1.93,9.35.06,3.14,1.42,3.23,1.47,6.22C57.15,139.53,54.91,144.33,52.73,144.43Z"/><ellipse class="cls-2" cx="61.6" cy="108.34" rx="5.09" ry="4.48"/><circle class="cls-1" cx="83.46" cy="163.75" r="29.61"/><path class="cls-2" d="M67.73,181.43c-3.59.17-9.75-12.37-5.63-21.68,1.8-4.07,5.9-8.27,8.2-7.56,1.85.58,2.19,4.22,2.25,4.85.37,4.06-2,5.18-1.93,9.35.06,3.14,1.42,3.23,1.47,6.22C72.15,176.53,69.91,181.33,67.73,181.43Z"/><ellipse class="cls-2" cx="76.6" cy="145.34" rx="5.09" ry="4.48"/><circle class="cls-1" cx="386.46" cy="221.75" r="29.61"/><path class="cls-2" d="M370.73,239.43c-3.59.17-9.75-12.37-5.63-21.68,1.8-4.07,5.9-8.27,8.2-7.56,1.85.58,2.19,4.22,2.25,4.85.37,4.06-2,5.18-1.93,9.35.06,3.14,1.42,3.23,1.47,6.22C375.15,234.53,372.91,239.33,370.73,239.43Z"/><ellipse class="cls-2" cx="379.6" cy="203.34" rx="5.09" ry="4.48"/><circle class="cls-1" cx="609.46" cy="163.75" r="29.61"/><path class="cls-2" d="M593.73,181.43c-3.59.17-9.75-12.37-5.63-21.68,1.8-4.07,5.9-8.27,8.2-7.56,1.85.58,2.19,4.22,2.25,4.85.37,4.06-2,5.18-1.93,9.35.06,3.14,1.42,3.23,1.47,6.22C598.15,176.53,595.91,181.33,593.73,181.43Z"/><ellipse class="cls-2" cx="602.6" cy="145.34" rx="5.09" ry="4.48"/><circle class="cls-1" cx="579.46" cy="109.75" r="29.61"/><path class="cls-2" d="M563.73,127.43c-3.59.17-9.75-12.37-5.63-21.68,1.8-4.07,5.9-8.27,8.2-7.56,1.85.58,2.19,4.22,2.25,4.85.37,4.06-2,5.18-1.93,9.35.06,3.14,1.42,3.23,1.47,6.22C568.15,122.53,565.91,127.33,563.73,127.43Z"/><ellipse class="cls-2" cx="572.6" cy="91.34" rx="5.09" ry="4.48"/><circle class="cls-1" cx="142.46" cy="164.75" r="41.61"/><path class="cls-2" d="M120.36,189.6c-5,.23-13.7-17.39-7.91-30.47,2.53-5.72,8.29-11.63,11.52-10.62,2.6.81,3.07,5.92,3.15,6.81.53,5.7-2.8,7.28-2.7,13.14.08,4.41,2,4.54,2.06,8.74C126.57,182.71,123.42,189.46,120.36,189.6Z"/><ellipse class="cls-2" cx="132.82" cy="138.87" rx="7.15" ry="6.29"/><circle class="cls-1" cx="530.12" cy="109.09" r="16.27"/><path class="cls-2" d="M521.48,118.81c-2,.09-5.36-6.8-3.1-11.92,1-2.23,3.24-4.54,4.51-4.15,1,.32,1.2,2.32,1.23,2.66.21,2.23-1.1,2.85-1.06,5.14,0,1.72.78,1.78.81,3.42C523.9,116.11,522.67,118.75,521.48,118.81Z"/><ellipse class="cls-2" cx="526.35" cy="98.97" rx="2.8" ry="2.46"/><circle class="cls-1" cx="100.46" cy="79.75" r="29.61"/><path class="cls-2" d="M84.73,97.43C81.14,97.6,75,85.06,79.1,75.75c1.8-4.07,5.9-8.27,8.2-7.56,1.85.58,2.19,4.22,2.25,4.85.37,4.06-2,5.18-1.93,9.35.06,3.14,1.42,3.23,1.47,6.22C89.15,92.53,86.91,97.33,84.73,97.43Z"/><ellipse class="cls-2" cx="93.6" cy="61.34" rx="5.09" ry="4.48"/><circle class="cls-1" cx="309.23" cy="206.75" r="43.39"/><path class="cls-2" d="M286.2,232.66c-5.27.24-14.3-18.13-8.26-31.77,2.64-6,8.65-12.12,12-11.07,2.71.84,3.2,6.17,3.29,7.09.54,6-2.93,7.6-2.82,13.71.08,4.59,2.07,4.73,2.14,9.12C292.67,225.47,289.38,232.51,286.2,232.66Z"/><ellipse class="cls-2" cx="299.19" cy="179.77" rx="7.46" ry="6.56"/><circle class="cls-1" cx="437.73" cy="189.25" r="46.89"/><path class="cls-2" d="M412.84,217.25c-5.7.26-15.45-19.59-8.92-34.33,2.85-6.44,9.34-13.1,13-12,2.93.91,3.46,6.67,3.56,7.67.59,6.43-3.17,8.21-3,14.81.09,5,2.24,5.12,2.32,9.85C419.83,209.48,416.28,217.09,412.84,217.25Z"/><ellipse class="cls-2" cx="426.88" cy="160.09" rx="8.06" ry="7.09"/><circle class="cls-1" cx="357.73" cy="167.25" r="39.89"/><path class="cls-2" d="M336.55,191.07c-4.84.22-13.13-16.67-7.58-29.21,2.42-5.48,7.94-11.14,11-10.18,2.49.78,2.95,5.68,3,6.53.5,5.46-2.7,7-2.59,12.59.07,4.23,1.9,4.36,2,8.39C342.5,184.46,339.49,190.94,336.55,191.07Z"/><ellipse class="cls-2" cx="348.5" cy="142.45" rx="6.86" ry="6.03"/><circle class="cls-1" cx="227.73" cy="199.25" r="39.89"/><path class="cls-2" d="M206.55,223.07c-4.84.22-13.13-16.67-7.58-29.21,2.42-5.48,7.94-11.14,11-10.18,2.49.78,3,5.68,3,6.53.5,5.46-2.7,7-2.59,12.59.07,4.23,1.9,4.36,2,8.39C212.5,216.46,209.49,222.94,206.55,223.07Z"/><ellipse class="cls-2" cx="218.5" cy="174.45" rx="6.86" ry="6.03"/><circle class="cls-3" cx="302.46" cy="141.75" r="29.61"/><path class="cls-4" d="M286.73,159.43c-3.59.17-9.75-12.37-5.63-21.68,1.8-4.07,5.9-8.27,8.2-7.56,1.85.58,2.19,4.22,2.25,4.85.37,4.06-2,5.18-1.93,9.35.06,3.14,1.42,3.23,1.47,6.22C291.15,154.53,288.91,159.33,286.73,159.43Z"/><ellipse class="cls-4" cx="295.6" cy="123.34" rx="5.09" ry="4.48"/><circle class="cls-3" cx="355.35" cy="215.64" r="16.5"/><path class="cls-4" d="M346.58,225.49c-2,.09-5.43-6.89-3.13-12.08,1-2.27,3.28-4.61,4.57-4.21,1,.32,1.21,2.35,1.25,2.7.2,2.26-1.12,2.89-1.08,5.21,0,1.75.79,1.8.82,3.47C349.05,222.76,347.8,225.44,346.58,225.49Z"/><ellipse class="cls-4" cx="351.53" cy="205.38" rx="2.84" ry="2.5"/><circle class="cls-3" cx="549.35" cy="102.64" r="16.5"/><path class="cls-4" d="M540.58,112.49c-2,.09-5.43-6.89-3.13-12.08,1-2.27,3.28-4.61,4.57-4.21,1,.32,1.21,2.35,1.25,2.7.2,2.26-1.12,2.89-1.08,5.21,0,1.75.79,1.8.82,3.47C543.05,109.76,541.8,112.44,540.58,112.49Z"/><ellipse class="cls-4" cx="545.53" cy="92.38" rx="2.84" ry="2.5"/><circle class="cls-3" cx="116.62" cy="127.91" r="8.77"/><path class="cls-4" d="M112,133.15c-1.07,0-2.89-3.67-1.67-6.42.53-1.21,1.75-2.46,2.43-2.24s.65,1.24.66,1.43c.12,1.2-.59,1.54-.57,2.77,0,.93.42,1,.44,1.85C113.27,131.69,112.6,133.12,112,133.15Z"/><ellipse class="cls-4" cx="114.59" cy="122.46" rx="1.51" ry="1.33"/><circle class="cls-3" cx="51.62" cy="154.91" r="8.77"/><path class="cls-4" d="M47,160.15c-1.07,0-2.89-3.67-1.67-6.42.53-1.21,1.75-2.46,2.43-2.24s.65,1.24.66,1.43c.12,1.2-.59,1.54-.57,2.77,0,.93.42,1,.44,1.85C48.27,158.69,47.6,160.12,47,160.15Z"/><ellipse class="cls-4" cx="49.59" cy="149.46" rx="1.51" ry="1.33"/><circle class="cls-3" cx="605.35" cy="132.64" r="16.5"/><path class="cls-4" d="M596.58,142.49c-2,.09-5.43-6.89-3.13-12.08,1-2.27,3.28-4.61,4.57-4.21,1,.32,1.21,2.35,1.25,2.7.2,2.26-1.12,2.89-1.08,5.21,0,1.75.79,1.8.82,3.47C599.05,139.76,597.8,142.44,596.58,142.49Z"/><ellipse class="cls-4" cx="601.53" cy="122.38" rx="2.84" ry="2.5"/><circle class="cls-3" cx="76.35" cy="97.64" r="16.5"/><path class="cls-4" d="M67.58,107.49c-2,.09-5.43-6.89-3.13-12.08,1-2.27,3.28-4.61,4.57-4.21,1,.32,1.21,2.35,1.25,2.7.2,2.26-1.12,2.89-1.08,5.21,0,1.75.79,1.8.82,3.47C70.05,104.76,68.8,107.44,67.58,107.49Z"/><ellipse class="cls-4" cx="72.53" cy="87.38" rx="2.84" ry="2.5"/><circle class="cls-3" cx="189.46" cy="186.75" r="29.61"/><path class="cls-4" d="M173.73,204.43c-3.59.17-9.75-12.37-5.63-21.68,1.8-4.07,5.9-8.27,8.2-7.56,1.85.58,2.19,4.22,2.25,4.85.37,4.06-2,5.18-1.93,9.35.06,3.14,1.42,3.23,1.47,6.22C178.15,199.53,175.91,204.33,173.73,204.43Z"/><ellipse class="cls-4" cx="182.6" cy="168.34" rx="5.09" ry="4.48"/><circle class="cls-3" cx="469.46" cy="228.75" r="29.61"/><path class="cls-4" d="M453.73,246.43c-3.59.17-9.75-12.37-5.63-21.68,1.8-4.07,5.9-8.27,8.2-7.56,1.85.58,2.19,4.22,2.25,4.85.37,4.06-2,5.18-1.93,9.35.06,3.14,1.42,3.23,1.47,6.22C458.15,241.53,455.91,246.33,453.73,246.43Z"/><ellipse class="cls-4" cx="462.6" cy="210.34" rx="5.09" ry="4.48"/><circle class="cls-3" cx="100.46" cy="198.75" r="29.61"/><path class="cls-4" d="M84.73,216.43c-3.59.17-9.75-12.37-5.63-21.68,1.8-4.07,5.9-8.27,8.2-7.56,1.85.58,2.19,4.22,2.25,4.85.37,4.06-2,5.18-1.93,9.35.06,3.14,1.42,3.23,1.47,6.22C89.15,211.53,86.91,216.33,84.73,216.43Z"/><ellipse class="cls-4" cx="93.6" cy="180.34" rx="5.09" ry="4.48"/><circle class="cls-3" cx="567.46" cy="177.75" r="29.61"/><path class="cls-4" d="M551.73,195.43c-3.59.17-9.75-12.37-5.63-21.68,1.8-4.07,5.9-8.27,8.2-7.56,1.85.58,2.19,4.22,2.25,4.85.37,4.06-2,5.18-1.93,9.35.06,3.14,1.42,3.23,1.47,6.22C556.15,190.53,553.91,195.33,551.73,195.43Z"/><ellipse class="cls-4" cx="560.6" cy="159.34" rx="5.09" ry="4.48"/><circle class="cls-1" cx="245.73" cy="181.25" r="40.89"/><path class="cls-2" d="M224,205.67c-5,.23-13.47-17.09-7.77-29.94,2.48-5.62,8.14-11.43,11.32-10.44,2.55.79,3,5.82,3.1,6.69.51,5.61-2.76,7.16-2.66,12.91.08,4.34,2,4.47,2,8.6C230.12,198.89,227,205.53,224,205.67Z"/><ellipse class="cls-2" cx="236.27" cy="155.82" rx="7.03" ry="6.18"/><circle class="cls-1" cx="509.46" cy="184.75" r="46.61"/><path class="cls-2" d="M484.71,212.59c-5.66.26-15.36-19.48-8.87-34.14,2.84-6.4,9.29-13,12.91-11.89,2.91.9,3.44,6.63,3.53,7.62.59,6.39-3.14,8.16-3,14.72.08,4.94,2.22,5.09,2.3,9.8C491.66,204.86,488.13,212.43,484.71,212.59Z"/><ellipse class="cls-2" cx="498.67" cy="155.76" rx="8.01" ry="7.05"/><circle class="cls-1" cx="529.46" cy="158.75" r="46.61"/><path class="cls-2" d="M504.71,186.59c-5.66.26-15.36-19.48-8.87-34.14,2.84-6.4,9.29-13,12.91-11.89,2.91.9,3.44,6.63,3.53,7.62.59,6.39-3.14,8.16-3,14.72.08,4.94,2.22,5.09,2.3,9.8C511.66,178.86,508.13,186.43,504.71,186.59Z"/><ellipse class="cls-2" cx="518.67" cy="129.76" rx="8.01" ry="7.05"/><circle class="cls-1" cx="495.96" cy="132.25" r="34.11"/><path class="cls-2" d="M477.84,152.62c-4.14.19-11.23-14.25-6.48-25,2.07-4.68,6.79-9.53,9.44-8.7,2.13.66,2.52,4.85,2.59,5.58.43,4.67-2.3,6-2.22,10.77.07,3.61,1.63,3.72,1.69,7.17C482.93,147,480.35,152.51,477.84,152.62Z"/><ellipse class="cls-2" cx="488.06" cy="111.04" rx="5.86" ry="5.16"/><circle class="cls-1" cx="568.96" cy="136.25" r="34.11"/><path class="cls-2" d="M550.84,156.62c-4.14.19-11.23-14.25-6.48-25,2.07-4.68,6.79-9.53,9.44-8.7,2.13.66,2.52,4.85,2.59,5.58.43,4.67-2.3,6-2.22,10.77.07,3.61,1.63,3.72,1.69,7.17C555.93,151,553.35,156.51,550.84,156.62Z"/><ellipse class="cls-2" cx="561.06" cy="115.04" rx="5.86" ry="5.16"/><ellipse class="cls-2" cx="31.09" cy="160.48" rx="5.09" ry="4.48"/><ellipse class="cls-2" cx="39.09" cy="69.48" rx="5.09" ry="4.48"/><ellipse class="cls-2" cx="147.09" cy="217.48" rx="5.09" ry="4.48"/><ellipse class="cls-2" cx="259.09" cy="250.48" rx="5.09" ry="4.48"/><ellipse class="cls-2" cx="416.09" cy="250.48" rx="5.09" ry="4.48"/><ellipse class="cls-2" cx="537.09" cy="250.48" rx="5.09" ry="4.48"/><ellipse class="cls-2" cx="582.09" cy="68.48" rx="5.09" ry="4.48"/><ellipse class="cls-2" cx="639.09" cy="107.48" rx="5.09" ry="4.48"/><ellipse class="cls-2" cx="642.09" cy="213.48" rx="5.09" ry="4.48"/><ellipse class="cls-2" cx="74.09" cy="4.48" rx="5.09" ry="4.48"/><ellipse class="cls-2" cx="204.09" cy="265.48" rx="5.09" ry="4.48"/><ellipse class="cls-2" cx="5.09" cy="119.48" rx="5.09" ry="4.48"/><ellipse class="cls-2" cx="100.09" cy="35.48" rx="5.09" ry="4.48"/><ellipse class="cls-4" cx="348.09" cy="246.48" rx="2.84" ry="2.5"/><ellipse class="cls-4" cx="428.09" cy="275.48" rx="2.84" ry="2.5"/><ellipse class="cls-4" cx="435.09" cy="243.48" rx="2.5" ry="2.84" transform="translate(137.85 643.77) rotate(-82.64)"/><ellipse class="cls-4" cx="500.09" cy="255.48" rx="2.5" ry="2.84" transform="translate(182.62 718.7) rotate(-82.64)"/><ellipse class="cls-4" cx="634.09" cy="226.48" rx="2.5" ry="2.84" transform="matrix(0.13, -0.99, 0.99, 0.13, 328.21, 826.31)"/><ellipse class="cls-4" cx="600.09" cy="200.48" rx="2.5" ry="2.84" transform="translate(-29.7 261) rotate(-23.96)"/><ellipse class="cls-4" cx="639.09" cy="126.48" rx="2.5" ry="2.84" transform="translate(3.71 270.46) rotate(-23.96)"/><ellipse class="cls-4" cx="608.67" cy="90.22" rx="3.13" ry="2.84" transform="translate(15.82 254.98) rotate(-23.96)"/><ellipse class="cls-4" cx="573.09" cy="233.48" rx="2.5" ry="2.84" transform="matrix(0.13, -0.99, 0.99, 0.13, 268.09, 771.92)"/><ellipse class="cls-4" cx="210.09" cy="242.48" rx="2.84" ry="2.5"/><ellipse class="cls-4" cx="132.09" cy="233.48" rx="2.84" ry="2.5"/><ellipse class="cls-4" cx="62.09" cy="205.48" rx="2.84" ry="2.5"/><ellipse class="cls-4" cx="43.09" cy="172.48" rx="2.84" ry="2.5"/><ellipse class="cls-4" cx="36.09" cy="139.48" rx="2.84" ry="2.5"/><ellipse class="cls-4" cx="63.09" cy="71.48" rx="2.84" ry="2.5"/><ellipse class="cls-4" cx="78.09" cy="35.48" rx="2.84" ry="2.5"/><ellipse class="cls-4" cx="10.09" cy="84.48" rx="2.84" ry="2.5"/><ellipse class="cls-4" cx="100.09" cy="18.48" rx="2.84" ry="2.5"/><ellipse class="cls-4" cx="276.09" cy="263.48" rx="2.84" ry="2.5"/></g></svg>