<svg xmlns="http://www.w3.org/2000/svg" xmlns:xlink="http://www.w3.org/1999/xlink" viewBox="0 0 685.85 733.3"><defs><style>.cls-1{fill:none;}.cls-2{clip-path:url(#clip-path);}.cls-3{fill:#f4bd86;}.cls-4{clip-path:url(#clip-path-2);}.cls-5{fill:#c68142;}.cls-6{fill:#d8a83d;}.cls-7{fill:#68332f;}.cls-8{fill:#956132;}.cls-9{fill:#91571e;opacity:0.85;}</style><clipPath id="clip-path"><ellipse class="cls-1" cx="374.17" cy="329.28" rx="472" ry="386.5"/></clipPath><clipPath id="clip-path-2"><ellipse class="cls-1" cx="445.22" cy="348.42" rx="241.7" ry="124.75" transform="translate(-35.87 51.49) rotate(-6.36)"/></clipPath></defs><g id="דוש"><g class="cls-2"><rect class="cls-3" x="265.57" y="381.47" width="122.24" height="141"/><g class="cls-4"><rect class="cls-5" x="265.57" y="357.47" width="122.24" height="176"/></g><path class="cls-3" d="M196.89,393c-71-79.07-49.64-192-43-227,6.91-36.46,13-68.53,39-100C231.53,19.2,304-14,372.89,7c69.29,21.09,109.69,89.34,118,141,6.25,38.87-6.88,60.81,10,112,8.82,26.74,17.89,37.4,19,62,1.83,40.78-20.39,72.67-25,79-46.43,63.74-155.89,73.83-233,39A198.64,198.64,0,0,1,196.89,393Z"/><ellipse class="cls-3" cx="146.89" cy="264.47" rx="41" ry="48.5" transform="translate(-88.45 74.38) rotate(-22.02)"/><path class="cls-5" d="M124.39,245.47a37,37,0,0,1,16.15-.15,39.74,39.74,0,0,1,7.92,2.49,36.35,36.35,0,0,1,7.27,4.33A39.16,39.16,0,0,1,159,255a31.57,31.57,0,0,1,2.77,3.35,23.25,23.25,0,0,1,3.76,7.87,20.44,20.44,0,0,1,.57,8.53,21.25,21.25,0,0,1-2.67,7.75c-.13-5.39-.9-10.31-3.07-14.39a9.31,9.31,0,0,0-.82-1.52c-.31-.48-.57-1-.89-1.46a30.3,30.3,0,0,0-2.12-2.7c-.7-.89-1.58-1.67-2.37-2.49s-1.7-1.57-2.68-2.24c-.47-.35-.91-.73-1.4-1.07l-1.47-1c-1-.7-2-1.23-3.06-1.87a69,69,0,0,0-6.58-3.19C134.37,248.61,129.53,247.08,124.39,245.47Z"/><path class="cls-5" d="M143.13,280.61a17.65,17.65,0,0,1-7.61-9.36,14.79,14.79,0,0,1-.79-6.63,10.65,10.65,0,0,1,.36-1.82,10.13,10.13,0,0,1,.78-1.85,8.44,8.44,0,0,1,1.28-1.77,9.07,9.07,0,0,1,1.72-1.32,11.8,11.8,0,0,1,7.12-1.42,17.37,17.37,0,0,1,6.26,1.84,18.94,18.94,0,0,1,5,3.76l1,1.15c.31.4.59.82.87,1.25a15.56,15.56,0,0,1,1.41,2.64c-1.77-1-3.35-1.94-5-2.66a30.92,30.92,0,0,0-4.93-1.74,19.19,19.19,0,0,0-4.78-.55,7.84,7.84,0,0,0-3.82.88,2.11,2.11,0,0,0-.94.88,4.51,4.51,0,0,0-.39.73c-.08.31-.22.59-.28.94a14.21,14.21,0,0,0-.23,4.62A35.66,35.66,0,0,0,143.13,280.61Z"/><path class="cls-6" d="M323.39,116.47c2.91,2.32,45,46-1,34-6.65-1.74-104.16-42.67-121.41-49.91a1.87,1.87,0,0,0-2.59,1.72c0,21.33,16,143.19-11.5,158.69-5.61,3.16-16.3-34.74-40-37-5.13-.49-6.39,1-9,0-17.57-6.94-19.25-98.9,22-154,57.87-77.31,203.68-95.51,273.5-29.5,24.26,22.94,52.5,66.5,57,104,3.37,28.08,2.49,79.09,2,77-8-34-16.73-115.91-31.5-115.5-7.14.19-7,22-18,25-23.29,6.41-68.12-78.55-69-78-.46.28,14.86,20.89,20,50,2.38,13.51,4.8,27.22-1,31-14.7,9.55-95.5-37.5-109.5-60.5"/><path class="cls-6" d="M188.81,52.12c-5.73.52-29.3,5.75-32.42,1.35-1.56-2.2,2.05-9,7.09-10.83,15.06-5.33,16.55-3,21.91-6.17,6.83-4.07-9.81-14.74,1.39-29.41C189.55,3.43,195.64-.07,200,.53c6.54.92-3.11,14.24,8.1,26.69,8.2,9.1,20.49,10.18,19.25,14.82C225.49,48.83,198,51.3,188.81,52.12Z"/><path class="cls-6" d="M478.28,200.49a17.61,17.61,0,0,1-2.62,6,16.44,16.44,0,0,1-5.18,4.4l-1.54.76-1.6.59a14.19,14.19,0,0,1-1.62.48c-.54.13-1.09.31-1.63.39-1.09.19-2.2.41-3.29.49s-2.18.2-3.27.23a78.52,78.52,0,0,1-12.8-.84c-4.18-.64-8.27-1.48-12.33-2.41s-8.14-1.72-12.16-2.66a58.37,58.37,0,0,1-11.6-4,98.27,98.27,0,0,1-10.81-6,65.06,65.06,0,0,1-10.13-7.79l-.52-.5.24-.66.71-.07a58.57,58.57,0,0,1,12.82.38,99.17,99.17,0,0,1,12.1,2.36,64.87,64.87,0,0,1,11.38,4.1c3.65,1.7,7.27,3.47,11,4.88s7.44,2.78,11.19,3.93a71.84,71.84,0,0,0,11.27,2.78,25.54,25.54,0,0,0,11-.2,13.12,13.12,0,0,0,4.74-2.5,15.57,15.57,0,0,0,3.43-4.54l.31-.58,1.08.38Z"/><path class="cls-6" d="M240.91,231.77a18.31,18.31,0,0,0,5.22,2,11.48,11.48,0,0,0,5.16-.22c3.31-.89,6.36-3,9.29-5.4s5.85-5,8.78-7.66,6-5.27,9.07-7.87,6.16-5.32,9.37-7.89a47.56,47.56,0,0,1,10.57-6.33,62.15,62.15,0,0,1,11.83-3.75,44.21,44.21,0,0,1,12.64-.94l.72.06.23.64-.5.52a88.43,88.43,0,0,1-9.3,8.09c-3.14,2.37-6.23,4.68-9.4,6.8a76.75,76.75,0,0,1-9.85,5.75c-3.44,1.71-6.92,3.43-10.22,5.48s-6.61,4.16-9.94,6.33-6.8,4.26-10.46,6.22a47.75,47.75,0,0,1-5.8,2.61,21.16,21.16,0,0,1-6.48,1.38,15,15,0,0,1-6.56-1.2,20.75,20.75,0,0,1-5.16-3.62l-.48-.45.7-.9Z"/><path class="cls-7" d="M319.65,359.29c4.06-10.94,39.48-45.79,88.82-27.48l20.13,7.56c-9.34-6.71-20.31-13.38-31.43-15.59-37.27-7.42-68.91,12.31-77.52,35.51"/><circle class="cls-7" cx="256.39" cy="306.47" r="5"/><rect class="cls-3" x="93.39" y="494.47" width="489" height="280.31" rx="64.5"/><path class="cls-8" d="M326,258a41,41,0,0,0-13.5-4.11,14.44,14.44,0,0,0-1.74-.17l-1.73-.1a12.63,12.63,0,0,0-1.74,0l-1.72.05a12.34,12.34,0,0,0-1.72.14l-1.71.2c-1.14.12-2.24.45-3.36.66a32.91,32.91,0,0,0-3.24,1c-1.06.38-2.07.92-3.09,1.36-.52.21-1,.54-1.48.79s-1,.52-1.49.76-.95.57-1.44.83l-1.47.81c-.94.59-1.87,1.21-2.85,1.79s-1.8,1.36-2.77,2-1.77,1.48-2.71,2.22-1.73,1.63-2.72,2.42l-.43-.26a34.63,34.63,0,0,1,1.34-3.54c.61-1.09,1.26-2.19,2-3.26s1.61-2,2.46-3,1.9-1.75,2.9-2.57,2.12-1.47,3.25-2.09,2.34-1.11,3.55-1.53,2.46-.77,3.71-1l1.87-.37a17.2,17.2,0,0,1,1.88-.33c1.26-.12,2.5-.35,3.77-.38l1.89,0a14.75,14.75,0,0,1,1.88,0l1.88.15a13.12,13.12,0,0,1,1.86.23l1.84.32a16.38,16.38,0,0,1,1.82.39,39.7,39.7,0,0,1,13.3,6.14Z"/><path class="cls-8" d="M463.35,243.88a41,41,0,0,0-13.16-5.1,12.49,12.49,0,0,0-1.71-.3l-1.73-.23a14.24,14.24,0,0,0-1.73-.14L443.3,238a14.27,14.27,0,0,0-1.73,0l-1.71.07c-1.15,0-2.27.28-3.4.41s-2.22.51-3.31.77-2.13.77-3.19,1.14c-.53.17-1,.46-1.53.67s-1,.45-1.54.65-1,.5-1.5.72l-1.52.7c-1,.52-2,1.07-3,1.58S419,246,418,246.55s-1.88,1.34-2.86,2-1.85,1.49-2.9,2.2l-.41-.29a37.84,37.84,0,0,1,1.6-3.43c.69-1,1.42-2.09,2.2-3.1s1.75-1.86,2.68-2.76,2-1.6,3.08-2.34,2.23-1.31,3.4-1.85a37.49,37.49,0,0,1,3.65-1.26c1.27-.26,2.51-.59,3.77-.76l1.9-.23a13.45,13.45,0,0,1,1.89-.19c1.27,0,2.53-.17,3.79-.1l1.89.1a14.75,14.75,0,0,1,1.88.16l1.86.3a12.87,12.87,0,0,1,1.83.36l1.82.46a13.47,13.47,0,0,1,1.78.52,39.69,39.69,0,0,1,12.81,7.11Z"/><path class="cls-5" d="M467.62,244.28a2.51,2.51,0,0,1,.8-1.82,7.08,7.08,0,0,1,1.6-1.24,17.57,17.57,0,0,1,3.73-1.48,19,19,0,0,1,3.93-.76,16.21,16.21,0,0,1,4,.25v.1c-1.32.29-2.61.44-3.89.65s-2.57.29-3.84.54a16.79,16.79,0,0,0-3.69,1.14,6.78,6.78,0,0,0-1.62,1,2.35,2.35,0,0,0-.91,1.61Z"/><path class="cls-5" d="M467.31,245.42a2.57,2.57,0,0,1,1.61-1.17,6.48,6.48,0,0,1,2-.27,17.69,17.69,0,0,1,4,.57,18.59,18.59,0,0,1,3.78,1.31,16,16,0,0,1,3.33,2.2l-.05.09c-1.28-.41-2.47-.92-3.69-1.38s-2.37-1-3.6-1.45a16.76,16.76,0,0,0-3.76-.84,6.42,6.42,0,0,0-1.91.06,2.35,2.35,0,0,0-1.59.93Z"/><path class="cls-5" d="M273.4,269.88a2.33,2.33,0,0,0-1.41-1.2,6.5,6.5,0,0,0-1.86-.4,16.67,16.67,0,0,0-3.86.18c-1.28.2-2.53.56-3.8.8s-2.54.53-3.87.71l0-.09a15.93,15.93,0,0,1,3.67-1.59,18.81,18.81,0,0,1,3.95-.63,17.38,17.38,0,0,1,4,.13,7,7,0,0,1,1.93.61,2.61,2.61,0,0,1,1.37,1.44Z"/><path class="cls-5" d="M274.11,270.89a2.37,2.37,0,0,0-1.82-.33,6.2,6.2,0,0,0-1.81.59,17.11,17.11,0,0,0-3.26,2.07c-1,.82-1.91,1.75-2.89,2.59s-1.93,1.74-3,2.55l-.08-.06a16,16,0,0,1,2.39-3.21,19.31,19.31,0,0,1,3.11-2.51,17.91,17.91,0,0,1,3.53-1.9,7.07,7.07,0,0,1,2-.42,2.52,2.52,0,0,1,1.91.56Z"/><rect class="cls-9" x="583" y="500.68" width="68.05" height="347" rx="29.32" transform="translate(-249.88 384.85) rotate(-29.08)"/><path class="cls-5" d="M579.17,688.92,578,755c-.34,19.39-14.89,34.81-32.51,34.45l-423.45-8.73c-17.63-.36-31.64-16.37-31.31-35.76L93.86,563.8c-.69-19,2.2-13.87,5.69-19.37C113.67,605.15,212,670.51,339.05,699,437.12,721.05,527.23,715.49,579.17,688.92Z"/><rect class="cls-3" x="554.82" y="490.62" width="76.45" height="347" rx="38.22" transform="translate(-218.61 298.1) rotate(-23.96)"/><rect class="cls-9" x="185" y="523.68" width="68.05" height="347" rx="29.32" transform="translate(-319.24 202.92) rotate(-30)"/><rect class="cls-3" x="150.17" y="495.78" width="76.45" height="347" rx="38.22" transform="translate(-255.58 134.2) rotate(-23.96)"/></g></g></svg>