<svg xmlns="http://www.w3.org/2000/svg" xmlns:xlink="http://www.w3.org/1999/xlink" viewBox="0 0 684.85 733.3"><defs><style>.cls-1{fill:none;}.cls-2{clip-path:url(#clip-path);}.cls-3{fill:#f4bd86;}.cls-4{clip-path:url(#clip-path-2);}.cls-5{fill:#c68142;}.cls-6{fill:#d8a83d;}.cls-7{fill:#00395e;}.cls-8{fill:#fcfcfc;}.cls-9{fill:#68332f;}.cls-10{fill:#fff;}.cls-11{fill:#f4e2d4;}.cls-12{fill:#e9c5a9;}.cls-13{fill:#91571e;opacity:0.85;}</style><clipPath id="clip-path"><circle class="cls-1" cx="365.67" cy="324.28" r="408.5"/></clipPath><clipPath id="clip-path-2"><ellipse class="cls-1" cx="444.22" cy="350.42" rx="241.7" ry="124.75" transform="translate(-36.1 51.39) rotate(-6.36)"/></clipPath></defs><g id="דוש"><g class="cls-2"><rect class="cls-3" x="264.57" y="383.47" width="122.24" height="141"/><g class="cls-4"><rect class="cls-5" x="264.57" y="359.47" width="122.24" height="176"/></g><path class="cls-3" d="M196.89,393c-71-79.07-49.64-192-43-227,6.91-36.46,13-68.53,39-100C231.53,19.2,304-14,372.89,7c69.29,21.09,109.69,89.34,118,141,6.25,38.87-6.88,60.81,10,112,8.82,26.74,17.89,37.4,19,62,1.83,40.78-20.39,72.67-25,79-46.43,63.74-155.89,73.83-233,39A198.64,198.64,0,0,1,196.89,393Z"/><ellipse class="cls-3" cx="146.89" cy="264.47" rx="41" ry="48.5" transform="translate(-88.45 74.38) rotate(-22.02)"/><path class="cls-5" d="M124.39,245.47a37,37,0,0,1,16.15-.15,39.74,39.74,0,0,1,7.92,2.49,36.35,36.35,0,0,1,7.27,4.33A39.16,39.16,0,0,1,159,255a31.57,31.57,0,0,1,2.77,3.35,23.25,23.25,0,0,1,3.76,7.87,20.44,20.44,0,0,1,.57,8.53,21.25,21.25,0,0,1-2.67,7.75c-.13-5.39-.9-10.31-3.07-14.39a9.31,9.31,0,0,0-.82-1.52c-.31-.48-.57-1-.89-1.46a30.3,30.3,0,0,0-2.12-2.7c-.7-.89-1.58-1.67-2.37-2.49s-1.7-1.58-2.68-2.24c-.47-.35-.91-.73-1.4-1.07l-1.47-1c-1-.7-2-1.23-3.06-1.87a69,69,0,0,0-6.58-3.19C134.37,248.61,129.53,247.08,124.39,245.47Z"/><path class="cls-5" d="M143.13,280.61a17.65,17.65,0,0,1-7.61-9.36,14.79,14.79,0,0,1-.79-6.63,10.65,10.65,0,0,1,.36-1.82,10.13,10.13,0,0,1,.78-1.85,8.44,8.44,0,0,1,1.28-1.77,9.07,9.07,0,0,1,1.72-1.32,11.8,11.8,0,0,1,7.12-1.42,17.37,17.37,0,0,1,6.26,1.84,18.94,18.94,0,0,1,5,3.76l1,1.15c.31.4.59.82.87,1.25a15.56,15.56,0,0,1,1.41,2.64c-1.77-1-3.35-1.94-5-2.66a30.92,30.92,0,0,0-4.93-1.74,19.19,19.19,0,0,0-4.78-.55,7.84,7.84,0,0,0-3.82.88,2.11,2.11,0,0,0-.94.88,4.51,4.51,0,0,0-.39.73c-.08.31-.22.59-.28.94a14.21,14.21,0,0,0-.23,4.62A35.66,35.66,0,0,0,143.13,280.61Z"/><path class="cls-6" d="M323.39,116.47c2.91,2.32,45,46-1,34-6.65-1.74-104.16-42.67-121.41-49.91a1.87,1.87,0,0,0-2.59,1.72c0,21.33,16,143.19-11.5,158.69-5.61,3.16-16.3-34.74-40-37-5.13-.49-6.39,1-9,0-17.57-6.94-19.25-98.9,22-154,57.87-77.31,203.68-95.51,273.5-29.5,24.26,22.94,52.5,66.5,57,104,3.37,28.08,2.49,79.09,2,77-8-34-16.73-115.91-31.5-115.5-7.14.19-7,22-18,25-23.29,6.41-68.12-78.55-69-78-.46.28,14.86,20.89,20,50,2.38,13.51,4.8,27.22-1,31-14.7,9.55-95.5-37.5-109.5-60.5"/><path class="cls-6" d="M188.81,52.12c-5.73.52-29.3,5.75-32.42,1.35-1.56-2.2,2.05-9,7.09-10.83,15.06-5.33,16.55-3,21.91-6.17,6.83-4.07-9.81-14.74,1.39-29.41C189.55,3.43,195.64-.07,200,.53c6.54.92-3.11,14.24,8.1,26.69,8.2,9.1,20.49,10.18,19.25,14.82C225.49,48.83,198,51.3,188.81,52.12Z"/><path class="cls-6" d="M477.06,197.55a24.54,24.54,0,0,0-7.6-8.84,34.67,34.67,0,0,0-10.31-5.08,55.73,55.73,0,0,0-11.34-2.35,79.48,79.48,0,0,0-11.66-.51,76.35,76.35,0,0,0-11.65,1.38,112.74,112.74,0,0,1-11.62,1.43c-3.93.28-7.91.49-12,.6a100.11,100.11,0,0,1-12.75-.26l-.71-.06-.24-.68.52-.48c6.65-6.11,14.68-9.7,23-11.94a45.13,45.13,0,0,1,12.9-1.45c4.36.13,8.7.61,13,1.08a87.08,87.08,0,0,1,12.85,2.42,62.34,62.34,0,0,1,12.23,4.86,38.55,38.55,0,0,1,10.48,8,27.77,27.77,0,0,1,3.81,5.36,26.24,26.24,0,0,1,2.25,6.06l.16.63-1.09.38Z"/><path class="cls-6" d="M241.6,235.69a25.85,25.85,0,0,1,0-6.46,27.85,27.85,0,0,1,1.68-6.37,38.61,38.61,0,0,1,7-11.2A62.45,62.45,0,0,1,260,202.8,87.24,87.24,0,0,1,271.16,196c3.88-2,7.78-3.94,11.82-5.59a45.08,45.08,0,0,1,12.58-3.18c8.61-.83,17.39-.3,25.76,3.08l.66.26,0,.72-.64.32a101,101,0,0,1-11.85,4.72c-3.87,1.33-7.67,2.54-11.44,3.66a113,113,0,0,1-11.39,2.74,76.42,76.42,0,0,0-11.39,2.82,78.9,78.9,0,0,0-10.74,4.57,55.22,55.22,0,0,0-9.79,6.19,34.59,34.59,0,0,0-7.87,8.37,24.54,24.54,0,0,0-4,11l-.08.65-1.15,0Z"/><path class="cls-7" d="M304.58,277.16a44.82,44.82,0,0,1,20.12,1.5,96.82,96.82,0,0,0-1-19c-3.82-25.67-16.44-45.07-28.18-43.33s-18.17,24-14.35,49.66a96.22,96.22,0,0,0,4.59,18.46A44.87,44.87,0,0,1,304.58,277.16Z"/><circle class="cls-8" cx="293.73" cy="234.79" r="7.5"/><path class="cls-7" d="M439.39,264.18a45,45,0,0,1,20.1,1.64,95.64,95.64,0,0,0-.85-19c-3.64-25.7-16.12-45.18-27.88-43.52s-18.33,23.85-14.69,49.55a95.83,95.83,0,0,0,4.46,18.5A44.92,44.92,0,0,1,439.39,264.18Z"/><circle class="cls-8" cx="428.83" cy="221.74" r="7.5"/><path class="cls-9" d="M286,322.05c1.43,15.4,58.8,22.66,128.28,16.23l4.33,46.81a100.49,100.49,0,0,1-43.26,6.38c-50.26-3.36-86.32-36.76-89.35-69.42"/><path class="cls-10" d="M329.78,356.49c18.82,2.52,45.2,14.88,92.72.5l.69-20.26c-40.82,14.61-85.49,3.44-104.31.92Z"/><path class="cls-9" d="M286.41,323.34A7,7,0,0,0,289.5,327a25.53,25.53,0,0,0,4.47,2.31c1.58.64,3.19,1.21,4.81,1.74s3.29,1,5,1.44,3.34.85,5,1.24,3.37.79,5.06,1.14c3.4.67,6.79,1.39,10.2,2.12,6.8,1.47,13.64,3.13,20.6,3.89a136.12,136.12,0,0,0,21,.61c3.5-.13,7-.39,10.48-.57s7-.38,10.44-.63c6.95-.47,13.87-1.21,20.77-1.95a317.07,317.07,0,0,0,41.22-6.79l.18.47a106.4,106.4,0,0,1-19.9,7.46,154.74,154.74,0,0,1-20.87,4.16,190.37,190.37,0,0,1-21.2,1.38c-3.53.05-7.07.06-10.6-.09s-7.06-.41-10.58-.71c-7-.63-14-1.27-21.06-1.73s-14.11-.53-21.16-1.39a89.14,89.14,0,0,1-10.47-1.91q-2.59-.63-5.17-1.35t-5.09-1.65a54,54,0,0,1-9.82-4.51,22.28,22.28,0,0,1-4.38-3.34,10.55,10.55,0,0,1-1.73-2.24,5.7,5.7,0,0,1-.74-2.73Z"/><circle class="cls-9" cx="256.39" cy="306.47" r="5"/><rect class="cls-3" x="93.39" y="494.47" width="489" height="305.31" rx="64.5"/><path class="cls-11" d="M366,649.83C342.93,564,547,601.3,562.71,604c6.36,1.08,9.13,1.95,12,3.52,40.49,22-5.57,123.36,29.92,194.08,2.48,4.94,8.22,15.43,4.55,25.62-5.52,15.28-28.18,18.63-57.82,25.87-65.57,16-66.58,27-85.48,25.75C399.65,874.59,398.38,770.7,366,649.83Z"/><path class="cls-12" d="M117.35,803.8C108.8,750.16,97.24,704,93.1,640.48c-.74-11.38-1.51-27.3,2.86-28.5,5.6-1.53,9.56,24,25.19,36.44,33,26.36,88-29.55,190.15-36.3,6.05-.4,54.88-3.18,105.36,15.42,6.23,2.3,9.42,3.49,12.7,5.62,25.68,16.73,20.91,52.51,33.29,118,8.27,43.83,13,41.3,10.73,51.13-18.28,80.66-304.75,123.06-349.61,41C120.92,838.11,123.08,839.78,117.35,803.8Z"/><path class="cls-11" d="M93.17,774.78c-2.55-54.26-8.93-101.42-6-165,.52-11.39,1.52-27.3,6-28,5.74-.91,6.85,24.87,21,39,29.9,29.86,90.78-19.61,193-15,6.06.27,54.89,2.92,103,27,5.94,3,9,4.51,12,7,23.67,19.47,15,54.5,20,121,3.37,44.47,8.3,42.48,5,52-27.11,78.13-316.52,88.53-352,2C92.91,809.28,94.87,811.17,93.17,774.78Z"/><rect class="cls-13" x="182.01" y="525.48" width="68.05" height="347" rx="29.32" transform="translate(-320.55 201.66) rotate(-30)"/><rect class="cls-3" x="147.18" y="497.58" width="76.45" height="347" rx="38.22" transform="translate(-256.57 133.14) rotate(-23.96)"/><rect class="cls-13" x="573.01" y="502.48" width="68.05" height="347" rx="29.32" transform="translate(-233.85 331.95) rotate(-25.82)"/><rect class="cls-3" x="554.84" y="492.43" width="76.45" height="347" rx="38.22" transform="translate(-219.34 298.26) rotate(-23.96)"/></g></g></svg>