<svg xmlns="http://www.w3.org/2000/svg" viewBox="0 0 219.95 90.33"><defs><style>.cls-1,.cls-2{fill:#603813;}.cls-1{opacity:0.97;}</style></defs><g id="דוש"><path class="cls-1" d="M35.53,8.81C42.17,4.64,47.06,1.57,54.41.44c13.14-2,28,3.14,35.91,10.46,5.15,4.73,5.14,8.26,9.67,9.07,6.29,1.14,9.43-5.09,20.26-7.32,7.58-1.56,18.84-1.15,23.95,3.49C151,22.27,141.38,30.8,147,36.37c8.23,8.21,35.33-4.1,43.28,2.79,9.06,7.86-8.73,39-30.39,40.46C138,81.15,118.22,52.11,112.42,54.86,108,57,122.86,72.59,115.19,82.07c-10.3,12.7-57.24,9.49-61.7-1-4.15-9.78,29.24-23.63,25.32-28.6-2.63-3.34-21-1.28-35,6.28C27,67.75,26.44,79.24,17.57,79.28c-9.81,0-21-14-16.58-20.58,3.77-5.64,16-1.63,28.55-9.42C36.38,45,43.69,37,41.05,30.79,38.23,24.15,25.86,24,25.4,18.58,25.12,15.35,29.31,12.72,35.53,8.81Z"/><path class="cls-2" d="M197.27,73.64c0,3.17.18,11.55,6.73,13.41,6,1.71,14.62-3,15.8-7.29,2-7.33-16.43-16.87-21.19-12.74C197.18,68.26,197.22,70.53,197.27,73.64Z"/></g></svg>