<svg xmlns="http://www.w3.org/2000/svg" viewBox="0 0 103.52 76.07"><defs><style>.cls-1{fill:#603813;opacity:0.97;}</style></defs><g id="דוש"><path class="cls-1" d="M33.2,9.24C41.81,8.6,44.15-.72,49.75,0,57.08,1.05,55.17,17.35,66,24c9.75,5.95,18.33-3,27,2.14,11.41,6.84,15.23,33.74,3.06,44.75C84,81.69,59.75,74.1,48.21,62.26,41.14,55,38.32,45.6,34.12,46.32c-4.77.82-3.19,13.22-9.5,15.94C16.47,65.76-1.48,51.75.1,41.72,1.74,31.29,23.64,30.79,24.92,19.66c.91-7.83-9.05-15.14-7.66-16.55S24.89,9.86,33.2,9.24Z"/></g></svg>