<svg xmlns="http://www.w3.org/2000/svg" viewBox="0 0 119.18 56.96"><defs><style>.cls-1{fill:#603813;opacity:0.97;}</style></defs><g id="דוש"><path class="cls-1" d="M18.57,18.51C21.75,9.94,35,7.66,36.5,7.42c20.27-3.25,28.31,16.35,44,12.67C94.81,16.75,98-1.71,107.59.13c7.29,1.39,10.44,13,10.69,13.94,1.4,5.39,1.77,15-3.46,18.7-6.14,4.34-13.44-4.08-21.07-.32-9,4.46-6,19.81-13.21,22.81C74,58,68.4,41.66,58.2,42.27c-6.76.41-7.67,7.38-15.72,11.73C25.55,63.13-.69,48.69,0,44.17c.51-3.25,14.87-.42,18.88-8.24C21.79,30.27,16.08,25.21,18.57,18.51Z"/></g></svg>