<svg xmlns="http://www.w3.org/2000/svg" viewBox="0 0 124.17 76.37"><defs><style>.cls-1,.cls-2{fill:#603813;}.cls-1{opacity:0.97;}</style></defs><g id="דוש"><path class="cls-1" d="M53.85,9.24C62.46,8.6,64.8-.72,70.4,0c7.34,1,5.42,17.31,16.24,23.91,9.76,5.95,18.33-3,27,2.14,11.41,6.84,15.24,33.74,3.06,44.75-12,10.85-36.27,3.26-47.8-8.58C61.79,55,59,45.6,54.77,46.32c-4.76.82-3.19,13.22-9.5,15.94-8.14,3.5-26.1-10.51-24.52-20.54C22.4,31.29,44.29,30.79,45.57,19.66c.91-7.83-9-15.14-7.66-16.55S45.54,9.86,53.85,9.24Z"/><path class="cls-2" d="M7.87,58C5.92,59.13.78,62.24.08,67.59c-.64,4.94,2.81,9.41,5.55,8.7,4.64-1.21,9.26-17.82,6.4-19.75C11.17,56,9.77,56.81,7.87,58Z"/></g></svg>