<svg xmlns="http://www.w3.org/2000/svg" viewBox="0 0 132.66 74.94"><defs><style>.cls-1,.cls-2{fill:#603813;}.cls-1{opacity:0.97;}</style></defs><g id="דוש"><path class="cls-1" d="M24.46,6.07C29,3.2,32.4,1.08,37.46.3c9.06-1.39,19.25,2.17,24.73,7.21,3.54,3.25,3.54,5.68,6.66,6.24,4.33.79,6.5-3.51,14-5,5.22-1.07,13-.79,16.49,2.4,4.65,4.23-1.94,10.1,1.9,13.93,5.67,5.66,24.33-2.82,29.8,1.92,6.24,5.42-6,26.83-20.92,27.87S81.4,35.88,77.41,37.77C74.35,39.23,84.6,50,79.31,56.51c-7.08,8.75-39.41,6.54-42.48-.72C34,49.05,57,39.52,54.27,36.09c-1.82-2.3-14.43-.88-24.1,4.33-11.58,6.23-12,14.15-18.07,14.17C5.35,54.61-2.36,45,.68,40.42c2.6-3.88,11-1.12,19.66-6.49,4.71-2.93,9.74-8.46,7.93-12.73-1.94-4.57-10.47-4.68-10.78-8.41C17.3,10.57,20.18,8.76,24.46,6.07Z"/><path class="cls-2" d="M117.51,60.76c-.11,2.27-.39,8.27,3.67,11.83,3.74,3.29,9.38,2.91,10.31.23,1.58-4.53-9.65-17.61-12.84-16.31C117.69,56.9,117.62,58.53,117.51,60.76Z"/></g></svg>