<svg xmlns="http://www.w3.org/2000/svg" viewBox="0 0 98.83 92.25"><defs><style>.cls-1{fill:#603813;opacity:0.97;}</style></defs><g id="דוש"><path class="cls-1" d="M39.51,0c4.33-.93,6.78,13.65,15.73,15.73S69.15,4.94,80.53,5.66c8.3.52,17.55,8.15,18.26,16,1.09,12.22-19.12,17.47-18.54,30.9C80.69,63,93.32,68.3,91.48,72,88.6,77.69,59.84,60,40.92,71.67,29.46,78.73,30.4,91.12,21.54,92.18,11.54,93.37-1.74,79.05.19,68.86c2-10.75,20-11.89,20.5-21.34C21.1,38.9,6.36,34.65,7.77,28.13c1.55-7.16,19.85-4.43,27-16.85C37.9,5.76,36.94.6,39.51,0Z"/></g></svg>