<svg xmlns="http://www.w3.org/2000/svg" viewBox="0 0 126.3 167.09"><defs><style>.cls-1,.cls-2{fill:#603813;}.cls-1{opacity:0.97;}</style></defs><g id="דוש"><path class="cls-1" d="M3.34,22C-2.32,33.51-.77,48.87,7.85,57.83c14.12,14.66,35.53,0,49.79,12.88,15.69,14.19-1,40.36,15.84,53.69C83.12,132,100.25,132.69,107,126c9.26-9.2-5.48-28,6.46-44.2,5.19-7.05,10-6.25,12.1-12.43,4-11.74-8.34-29.84-23.52-32.31-12-2-20.74,6.73-25,3-5.5-4.92,8.86-20.15,3-30.79C74.69-.63,53.86-3.1,46.2,4.3s-1.28,24-4.07,24.86C38.91,30.13,34.56,6.93,23,5.8,15.16,5,6.86,14.79,3.34,22Z"/><path class="cls-2" d="M93,146.54c-1.67,2.19-6.08,8-3.66,13.79,2.24,5.37,9.21,8.17,12.14,6,5-3.59.44-22.89-4.24-23.4C95.81,142.82,94.61,144.39,93,146.54Z"/></g></svg>